JustTheBoards000001_forces_filt12Hz.mot
version=1
nRows=16
nColumns=28
inDegrees=yes
endheader
time	R_ground_force_vx	R_ground_force_vy	R_ground_force_vz	R_ground_force_px	R_ground_force_py	R_ground_force_pz	R_ground_torque_x	R_ground_torque_y	R_ground_torque_z	L_ground_force_vx	L_ground_force_vy	L_ground_force_vz	L_ground_force_px	L_ground_force_py	L_ground_force_pz	L_ground_torque_x	L_ground_torque_y	L_ground_torque_z	3_ground_force_vx	3_ground_force_vy	3_ground_force_vz	3_ground_force_px	3_ground_force_py	3_ground_force_pz	3_ground_torque_x	3_ground_torque_y	3_ground_torque_z	
0.779500	  0.000000	  0.000000	  0.000000	  0.000000	  0.000000	  0.000000	  0.000000	  0.000000	  0.000000	 -2.013307	138.923742	  1.486778	 -0.215220	  0.006000	 -0.915617	  0.000000	  0.841993	  0.000000	  0.068116	142.122841	 -0.038161	 -0.218642	  0.006000	 -1.477927	  0.000000	  0.079900	  0.000000
0.780000	  0.000000	  0.000000	  0.000000	  0.000000	  0.000000	  0.000000	  0.000000	  0.000000	  0.000000	 -2.015845	138.921271	  1.487209	 -0.215223	  0.006000	 -0.915615	  0.000000	  0.841663	  0.000000	  0.067509	142.125290	 -0.037924	 -0.218646	  0.006000	 -1.477926	  0.000000	  0.079783	  0.000000
0.780500	  0.000000	  0.000000	  0.000000	  0.000000	  0.000000	  0.000000	  0.000000	  0.000000	  0.000000	 -2.018396	138.918799	  1.487668	 -0.215227	  0.006000	 -0.915612	  0.000000	  0.841341	  0.000000	  0.066939	142.127792	 -0.037671	 -0.218651	  0.006000	 -1.477926	  0.000000	  0.079668	  0.000000
0.781000	  0.000000	  0.000000	  0.000000	  0.000000	  0.000000	  0.000000	  0.000000	  0.000000	  0.000000	 -2.020960	138.916328	  1.488152	 -0.215230	  0.006000	 -0.915608	  0.000000	  0.841028	  0.000000	  0.066408	142.130340	 -0.037401	 -0.218655	  0.006000	 -1.477925	  0.000000	  0.079556	  0.000000
0.781500	  0.000000	  0.000000	  0.000000	  0.000000	  0.000000	  0.000000	  0.000000	  0.000000	  0.000000	 -2.023535	138.913856	  1.488659	 -0.215233	  0.006000	 -0.915605	  0.000000	  0.840725	  0.000000	  0.065914	142.132931	 -0.037117	 -0.218660	  0.006000	 -1.477925	  0.000000	  0.079447	  0.000000
0.782000	  0.000000	  0.000000	  0.000000	  0.000000	  0.000000	  0.000000	  0.000000	  0.000000	  0.000000	 -2.026119	138.911383	  1.489187	 -0.215236	  0.006000	 -0.915602	  0.000000	  0.840431	  0.000000	  0.065458	142.135558	 -0.036818	 -0.218664	  0.006000	 -1.477924	  0.000000	  0.079341	  0.000000
0.782500	  0.000000	  0.000000	  0.000000	  0.000000	  0.000000	  0.000000	  0.000000	  0.000000	  0.000000	 -2.028712	138.908909	  1.489732	 -0.215238	  0.006000	 -0.915598	  0.000000	  0.840147	  0.000000	  0.065038	142.138216	 -0.036505	 -0.218668	  0.006000	 -1.477924	  0.000000	  0.079238	  0.000000
0.783000	  0.000000	  0.000000	  0.000000	  0.000000	  0.000000	  0.000000	  0.000000	  0.000000	  0.000000	 -2.031312	138.906433	  1.490295	 -0.215241	  0.006000	 -0.915595	  0.000000	  0.839874	  0.000000	  0.064654	142.140901	 -0.036181	 -0.218673	  0.006000	 -1.477924	  0.000000	  0.079137	  0.000000
0.783500	  0.000000	  0.000000	  0.000000	  0.000000	  0.000000	  0.000000	  0.000000	  0.000000	  0.000000	 -2.033919	138.903958	  1.490872	 -0.215243	  0.006000	 -0.915591	  0.000000	  0.839611	  0.000000	  0.064303	142.143610	 -0.035845	 -0.218677	  0.006000	 -1.477923	  0.000000	  0.079039	  0.000000
0.784000	  0.000000	  0.000000	  0.000000	  0.000000	  0.000000	  0.000000	  0.000000	  0.000000	  0.000000	 -2.036530	138.901486	  1.491461	 -0.215245	  0.006000	 -0.915587	  0.000000	  0.839357	  0.000000	  0.063984	142.146338	 -0.035499	 -0.218682	  0.006000	 -1.477923	  0.000000	  0.078944	  0.000000
0.784500	  0.000000	  0.000000	  0.000000	  0.000000	  0.000000	  0.000000	  0.000000	  0.000000	  0.000000	 -2.039144	138.899020	  1.492060	 -0.215246	  0.006000	 -0.915583	  0.000000	  0.839113	  0.000000	  0.063693	142.149082	 -0.035143	 -0.218686	  0.006000	 -1.477923	  0.000000	  0.078853	  0.000000
0.785000	  0.000000	  0.000000	  0.000000	  0.000000	  0.000000	  0.000000	  0.000000	  0.000000	  0.000000	 -2.041761	138.896561	  1.492666	 -0.215248	  0.006000	 -0.915580	  0.000000	  0.838878	  0.000000	  0.063428	142.151838	 -0.034776	 -0.218690	  0.006000	 -1.477923	  0.000000	  0.078764	  0.000000
0.785500	  0.000000	  0.000000	  0.000000	  0.000000	  0.000000	  0.000000	  0.000000	  0.000000	  0.000000	 -2.044378	138.894113	  1.493277	 -0.215249	  0.006000	 -0.915576	  0.000000	  0.838650	  0.000000	  0.063188	142.154603	 -0.034398	 -0.218695	  0.006000	 -1.477923	  0.000000	  0.078678	  0.000000
0.786000	  0.000000	  0.000000	  0.000000	  0.000000	  0.000000	  0.000000	  0.000000	  0.000000	  0.000000	 -2.046996	138.891680	  1.493888	 -0.215250	  0.006000	 -0.915571	  0.000000	  0.838430	  0.000000	  0.062971	142.157372	 -0.034010	 -0.218699	  0.006000	 -1.477922	  0.000000	  0.078595	  0.000000
0.786500	  0.000000	  0.000000	  0.000000	  0.000000	  0.000000	  0.000000	  0.000000	  0.000000	  0.000000	 -2.049612	138.889266	  1.494496	 -0.215252	  0.006000	 -0.915567	  0.000000	  0.838217	  0.000000	  0.062773	142.160141	 -0.033611	 -0.218703	  0.006000	 -1.477922	  0.000000	  0.078515	  0.000000
0.787000	  0.000000	  0.000000	  0.000000	  0.000000	  0.000000	  0.000000	  0.000000	  0.000000	  0.000000	 -2.052227	138.886877	  1.495099	 -0.215252	  0.006000	 -0.915563	  0.000000	  0.838009	  0.000000	  0.062594	142.162905	 -0.033200	 -0.218707	  0.006000	 -1.477922	  0.000000	  0.078438	  0.000000
